<svg width="27" height="19" viewBox="0 0 27 19" fill="none" xmlns="http://www.w3.org/2000/svg">
<path d="M0 1.33333C0 0.596954 0.596954 0 1.33333 0H25.3333C26.0697 0 26.6667 0.596954 26.6667 1.33333C26.6667 2.06971 26.0697 2.66667 25.3333 2.66667H1.33333C0.596954 2.66667 0 2.06971 0 1.33333Z" fill="#F5F5F5"/>
<path d="M0 9.33333C0 8.59695 0.596954 8 1.33333 8H25.3333C26.0697 8 26.6667 8.59695 26.6667 9.33333C26.6667 10.0697 26.0697 10.6667 25.3333 10.6667H1.33333C0.596954 10.6667 0 10.0697 0 9.33333Z" fill="#F5F5F5"/>
<path d="M1.33333 16C0.596954 16 0 16.597 0 17.3333C0 18.0697 0.596954 18.6667 1.33333 18.6667H25.3333C26.0697 18.6667 26.6667 18.0697 26.6667 17.3333C26.6667 16.597 26.0697 16 25.3333 16H1.33333Z" fill="#F5F5F5"/>
</svg>
