<svg width="19" height="19" viewBox="0 0 19 19" fill="none" xmlns="http://www.w3.org/2000/svg">
<path d="M18.2761 2.27614C18.7968 1.75544 18.7968 0.911223 18.2761 0.390524C17.7554 -0.130175 16.9112 -0.130175 16.3905 0.390524L9.33333 7.44772L2.27614 0.390524C1.75544 -0.130175 0.911223 -0.130175 0.390524 0.390524C-0.130175 0.911223 -0.130175 1.75544 0.390524 2.27614L7.44772 9.33333L0.390524 16.3905C-0.130175 16.9112 -0.130175 17.7554 0.390524 18.2761C0.911223 18.7968 1.75544 18.7968 2.27614 18.2761L9.33333 11.219L16.3905 18.2761C16.9112 18.7968 17.7554 18.7968 18.2761 18.2761C18.7968 17.7554 18.7968 16.9112 18.2761 16.3905L11.219 9.33333L18.2761 2.27614Z" fill="#F5F5F5"/>
</svg>
